<svg width="20" height="20" viewBox="0 0 20 20" fill="none" xmlns="http://www.w3.org/2000/svg">
<g id="vuesax/linear/briefcase">
<g id="briefcase">
<path id="Vector (Stroke)" fill-rule="evenodd" clip-rule="evenodd" d="M1.17547 5.24913C1.98709 4.28419 3.37861 3.8125 5.41639 3.8125H14.5831C16.6208 3.8125 18.0124 4.28419 18.824 5.24913C19.6277 6.20469 19.7042 7.46006 19.5754 8.63061L18.8875 15.9674C18.7866 16.9098 18.55 17.943 17.7085 18.7117C16.8733 19.4748 15.5793 19.8542 13.6664 19.8542H6.33306C4.42011 19.8542 3.12613 19.4748 2.29091 18.7117C1.44947 17.943 1.21294 16.9098 1.11197 15.9674L1.111 15.9583L0.424086 8.63063C0.295268 7.46008 0.371716 6.2047 1.17547 5.24913ZM2.22773 6.13421C1.79531 6.6483 1.6736 7.42076 1.79139 8.48522L1.79265 8.49665L2.47962 15.8254C2.57133 16.6773 2.76119 17.279 3.21833 17.6966C3.68249 18.1206 4.561 18.4792 6.33306 18.4792H13.6664C15.4384 18.4792 16.317 18.1206 16.7811 17.6966C17.2383 17.279 17.4281 16.6773 17.5198 15.8254L18.208 8.48521C18.3258 7.42075 18.2041 6.6483 17.7717 6.13421C17.3458 5.62789 16.4594 5.1875 14.5831 5.1875H5.41639C3.54001 5.1875 2.6536 5.62789 2.22773 6.13421Z" fill="#F1F1F1"/>
<path id="Vector (Stroke)_2" fill-rule="evenodd" clip-rule="evenodd" d="M7.06056 2.71276C7.02161 3.01104 7.02051 3.35 7.02051 3.76658V4.49992C7.02051 4.87961 6.71271 5.18742 6.33301 5.18742C5.95331 5.18742 5.64551 4.87961 5.64551 4.49992L5.64551 3.74276C5.64549 3.35453 5.64546 2.93048 5.69713 2.53476C5.75066 2.12473 5.86537 1.68942 6.13411 1.30059C6.69945 0.482619 7.73506 0.145752 9.26634 0.145752H10.733C12.2643 0.145752 13.2999 0.482619 13.8652 1.30059C14.134 1.68942 14.2487 2.12473 14.3022 2.53476C14.3539 2.93048 14.3539 3.35453 14.3538 3.74277L14.3538 4.49992C14.3538 4.87961 14.046 5.18742 13.6663 5.18742C13.2866 5.18742 12.9788 4.87961 12.9788 4.49992V3.76658C12.9788 3.35 12.9777 3.01104 12.9388 2.71276C12.9007 2.42068 12.832 2.22406 12.7341 2.08237C12.5661 1.8393 12.1351 1.52075 10.733 1.52075H9.26634C7.86429 1.52075 7.43324 1.8393 7.26524 2.08237C7.16731 2.22406 7.09869 2.42068 7.06056 2.71276Z" fill="#F1F1F1"/>
<path id="Vector (Stroke)_3" fill-rule="evenodd" clip-rule="evenodd" d="M8.85425 10.6882C8.85354 10.7537 8.85352 10.8283 8.85352 10.9167V11.8608C8.85352 12.1189 8.85578 12.3087 8.87819 12.4698C8.89974 12.6246 8.93396 12.7 8.96297 12.7409C8.99532 12.7865 9.15654 12.9792 9.99936 12.9792C10.846 12.9792 11.0053 12.7847 11.037 12.7395C11.0661 12.6978 11.1003 12.6213 11.1215 12.4646C11.1435 12.3017 11.1452 12.111 11.1452 11.8517V10.9167C11.1452 10.8283 11.1452 10.7537 11.1445 10.6882C11.079 10.6875 11.0044 10.6875 10.916 10.6875H9.08269C8.99428 10.6875 8.91969 10.6875 8.85425 10.6882ZM9.05258 9.3125C9.06263 9.31251 9.07266 9.31251 9.08269 9.31251H10.916C10.9261 9.31251 10.9361 9.31251 10.9461 9.3125C11.1488 9.31246 11.3543 9.31241 11.5219 9.33104C11.6928 9.35002 11.9766 9.40078 12.2042 9.62846C12.4319 9.85613 12.4827 10.1399 12.5017 10.3108C12.5203 10.4784 12.5202 10.6839 12.5202 10.8866C12.5202 10.8966 12.5202 10.9066 12.5202 10.9167V11.862C12.5202 12.1 12.5202 12.3817 12.484 12.649C12.4465 12.9263 12.3644 13.241 12.1632 13.5283C11.7343 14.1407 10.9769 14.3542 9.99936 14.3542C9.02717 14.3542 8.27173 14.1435 7.84117 13.536C7.63871 13.2504 7.55492 12.9367 7.51631 12.6593C7.47857 12.3881 7.47852 12.1024 7.47852 11.8608V10.9167C7.47852 10.9066 7.47852 10.8966 7.47852 10.8866C7.47847 10.6839 7.47843 10.4784 7.49705 10.3108C7.51604 10.1399 7.5668 9.85613 7.79447 9.62846C8.02214 9.40078 8.30596 9.35002 8.47682 9.33104C8.64445 9.31241 8.84987 9.31246 9.05258 9.3125Z" fill="#F1F1F1"/>
<path id="Vector (Stroke)_4" fill-rule="evenodd" clip-rule="evenodd" d="M19.4016 8.67893C19.6249 8.98601 19.557 9.41598 19.2499 9.63931C17.0351 11.2501 14.5047 12.2081 11.919 12.5337C11.5423 12.5812 11.1984 12.3143 11.151 11.9375C11.1035 11.5608 11.3705 11.217 11.7472 11.1695C14.1114 10.8718 16.421 9.99653 18.4412 8.52729C18.7483 8.30397 19.1783 8.37186 19.4016 8.67893Z" fill="#F1F1F1"/>
<path id="Vector (Stroke)_5" fill-rule="evenodd" clip-rule="evenodd" d="M0.834096 8.94232C1.04855 8.62899 1.47641 8.54884 1.78974 8.76329C3.75956 10.1115 5.98087 10.9241 8.24293 11.1774C8.62027 11.2197 8.89191 11.5598 8.84966 11.9371C8.80741 12.3145 8.46727 12.5861 8.08993 12.5439C5.60367 12.2655 3.1683 11.3731 1.01312 9.89797C0.699791 9.68351 0.619638 9.25565 0.834096 8.94232Z" fill="#F1F1F1"/>
</g>
</g>
</svg>
