<svg width="20" height="20" viewBox="0 0 20 20" fill="none" xmlns="http://www.w3.org/2000/svg">
<g id="vuesax/linear/clock">
<g id="clock">
<path id="Vector (Stroke)" fill-rule="evenodd" clip-rule="evenodd" d="M9.99967 1.52075C5.31937 1.52075 1.52051 5.31961 1.52051 9.99992C1.52051 14.6802 5.31937 18.4791 9.99967 18.4791C14.68 18.4791 18.4788 14.6802 18.4788 9.99992C18.4788 5.31961 14.68 1.52075 9.99967 1.52075ZM0.145508 9.99992C0.145508 4.56022 4.55998 0.145752 9.99967 0.145752C15.4394 0.145752 19.8538 4.56022 19.8538 9.99992C19.8538 15.4396 15.4394 19.8541 9.99967 19.8541C4.55998 19.8541 0.145508 15.4396 0.145508 9.99992Z" fill="#F1F1F1"/>
<path id="Vector (Stroke)_2" fill-rule="evenodd" clip-rule="evenodd" d="M9.66016 5.19653C10.0399 5.19653 10.3477 5.50434 10.3477 5.88403V9.64237C10.3477 9.78312 10.4014 9.98713 10.5209 10.1967C10.6404 10.4063 10.7886 10.5562 10.909 10.6276L10.9108 10.6287L10.9108 10.6287L13.7525 12.3245C14.0785 12.5191 14.1851 12.9411 13.9905 13.2672C13.7959 13.5932 13.3739 13.6998 13.0478 13.5052L10.208 11.8105C10.2077 11.8103 10.2074 11.8101 10.207 11.8099C9.83289 11.5879 9.5322 11.2386 9.32649 10.8778C9.12058 10.5168 8.97266 10.0791 8.97266 9.64237V5.88403C8.97266 5.50434 9.28046 5.19653 9.66016 5.19653Z" fill="#F1F1F1"/>
</g>
</g>
</svg>
