<svg width="20" height="20" viewBox="0 0 20 20" fill="none" xmlns="http://www.w3.org/2000/svg">
<g id="vuesax/linear/cpu-setting">
<g id="cpu-setting">
<path id="Vector (Stroke)" fill-rule="evenodd" clip-rule="evenodd" d="M3.37155 3.37203C4.38856 2.35502 5.89821 1.979 7.79935 1.979H12.1993C14.1005 1.979 15.6101 2.35502 16.6272 3.37203C17.6442 4.38905 18.0202 5.8987 18.0202 7.79984C18.0202 8.17953 17.7124 8.48734 17.3327 8.48734C16.953 8.48734 16.6452 8.17953 16.6452 7.79984C16.6452 6.03431 16.2879 4.97729 15.6549 4.34431C15.0219 3.71132 13.9649 3.354 12.1993 3.354H7.79935C6.03382 3.354 4.97681 3.71132 4.34382 4.34431C3.71083 4.97729 3.35352 6.03431 3.35352 7.79984V12.1998C3.35352 13.9654 3.71083 15.0224 4.34382 15.6554C4.97681 16.2884 6.03382 16.6457 7.79935 16.6457C8.17904 16.6457 8.48685 16.9535 8.48685 17.3332C8.48685 17.7129 8.17904 18.0207 7.79935 18.0207C5.89821 18.0207 4.38856 17.6447 3.37155 16.6276C2.35453 15.6106 1.97852 14.101 1.97852 12.1998V7.79984C1.97852 5.8987 2.35453 4.38905 3.37155 3.37203Z" fill="#F1F1F1"/>
<path id="Vector (Stroke)_2" fill-rule="evenodd" clip-rule="evenodd" d="M5.67467 5.67516C6.38231 4.96752 7.41071 4.729 8.62435 4.729H11.3743C12.7128 4.729 13.8267 5.01657 14.5274 5.90842C14.762 6.20698 14.7102 6.63918 14.4116 6.87376C14.113 7.10835 13.6808 7.05648 13.4463 6.75792C13.1387 6.36644 12.5659 6.104 11.3743 6.104H8.62435C7.54632 6.104 6.97056 6.32382 6.64694 6.64743C6.32333 6.97104 6.10352 7.54681 6.10352 8.62484V11.3748C6.10352 12.5666 6.3661 13.1421 6.75204 13.4497C7.04895 13.6864 7.09779 14.119 6.86112 14.4159C6.62445 14.7128 6.1919 14.7616 5.89499 14.5249C5.01593 13.8242 4.72852 12.7131 4.72852 11.3748V8.62484C4.72852 7.4112 4.96703 6.3828 5.67467 5.67516Z" fill="#F1F1F1"/>
<path id="Vector (Stroke)_3" fill-rule="evenodd" clip-rule="evenodd" d="M6.3418 0.145752C6.72149 0.145752 7.0293 0.453556 7.0293 0.833252V2.66659C7.0293 3.04628 6.72149 3.35409 6.3418 3.35409C5.9621 3.35409 5.6543 3.04628 5.6543 2.66659V0.833252C5.6543 0.453556 5.9621 0.145752 6.3418 0.145752Z" fill="#F1F1F1"/>
<path id="Vector (Stroke)_4" fill-rule="evenodd" clip-rule="evenodd" d="M10 0.145752C10.3797 0.145752 10.6875 0.453556 10.6875 0.833252V2.66659C10.6875 3.04628 10.3797 3.35409 10 3.35409C9.6203 3.35409 9.3125 3.04628 9.3125 2.66659V0.833252C9.3125 0.453556 9.6203 0.145752 10 0.145752Z" fill="#F1F1F1"/>
<path id="Vector (Stroke)_5" fill-rule="evenodd" clip-rule="evenodd" d="M13.666 0.145752C14.0457 0.145752 14.3535 0.453556 14.3535 0.833252V2.66659C14.3535 3.04628 14.0457 3.35409 13.666 3.35409C13.2863 3.35409 12.9785 3.04628 12.9785 2.66659V0.833252C12.9785 0.453556 13.2863 0.145752 13.666 0.145752Z" fill="#F1F1F1"/>
<path id="Vector (Stroke)_6" fill-rule="evenodd" clip-rule="evenodd" d="M16.6455 6.33325C16.6455 5.95356 16.9533 5.64575 17.333 5.64575H19.1663C19.546 5.64575 19.8538 5.95356 19.8538 6.33325C19.8538 6.71295 19.546 7.02075 19.1663 7.02075H17.333C16.9533 7.02075 16.6455 6.71295 16.6455 6.33325Z" fill="#F1F1F1"/>
<path id="Vector (Stroke)_7" fill-rule="evenodd" clip-rule="evenodd" d="M6.3418 16.6458C6.72149 16.6458 7.0293 16.9536 7.0293 17.3333V19.1666C7.0293 19.5463 6.72149 19.8541 6.3418 19.8541C5.9621 19.8541 5.6543 19.5463 5.6543 19.1666V17.3333C5.6543 16.9536 5.9621 16.6458 6.3418 16.6458Z" fill="#F1F1F1"/>
<path id="Vector (Stroke)_8" fill-rule="evenodd" clip-rule="evenodd" d="M0.145508 6.33325C0.145508 5.95356 0.453312 5.64575 0.833008 5.64575H2.66634C3.04604 5.64575 3.35384 5.95356 3.35384 6.33325C3.35384 6.71295 3.04604 7.02075 2.66634 7.02075H0.833008C0.453312 7.02075 0.145508 6.71295 0.145508 6.33325Z" fill="#F1F1F1"/>
<path id="Vector (Stroke)_9" fill-rule="evenodd" clip-rule="evenodd" d="M0.145508 10C0.145508 9.6203 0.453312 9.3125 0.833008 9.3125H2.66634C3.04604 9.3125 3.35384 9.6203 3.35384 10C3.35384 10.3797 3.04604 10.6875 2.66634 10.6875H0.833008C0.453312 10.6875 0.145508 10.3797 0.145508 10Z" fill="#F1F1F1"/>
<path id="Vector (Stroke)_10" fill-rule="evenodd" clip-rule="evenodd" d="M0.145508 13.6665C0.145508 13.2868 0.453312 12.979 0.833008 12.979H2.66634C3.04604 12.979 3.35384 13.2868 3.35384 13.6665C3.35384 14.0462 3.04604 14.354 2.66634 14.354H0.833008C0.453312 14.354 0.145508 14.0462 0.145508 13.6665Z" fill="#F1F1F1"/>
<path id="Vector (Stroke)_11" fill-rule="evenodd" clip-rule="evenodd" d="M14.3169 13.8132C13.8916 13.8132 13.5469 14.158 13.5469 14.5832C13.5469 15.0085 13.8916 15.3532 14.3169 15.3532C14.7421 15.3532 15.0869 15.0085 15.0869 14.5832C15.0869 14.158 14.7421 13.8132 14.3169 13.8132ZM12.1719 14.5832C12.1719 13.3986 13.1322 12.4382 14.3169 12.4382C15.5015 12.4382 16.4619 13.3986 16.4619 14.5832C16.4619 15.7679 15.5015 16.7282 14.3169 16.7282C13.1322 16.7282 12.1719 15.7679 12.1719 14.5832Z" fill="#F1F1F1"/>
<path id="Vector (Stroke)_12" fill-rule="evenodd" clip-rule="evenodd" d="M12.8649 10.7549C12.8207 10.6805 12.7415 10.6748 12.6981 10.7006L12.6925 10.704L11.8494 11.195C11.7442 11.2541 11.7036 11.3965 11.767 11.5051L11.7683 11.5074C12.0617 12.0147 12.1745 12.6345 11.8653 13.1718C11.5559 13.7097 10.9628 13.9232 10.3757 13.9232C10.2512 13.9232 10.1465 14.0279 10.1465 14.1524V15.0049C10.1465 15.1456 10.2553 15.2361 10.3632 15.2342L10.3757 15.2339C10.9628 15.2339 11.5559 15.4476 11.8653 15.9855C12.1745 16.5228 12.0617 17.1426 11.7683 17.6499L11.767 17.6521C11.7075 17.7541 11.7366 17.8963 11.8584 17.9675C11.8583 17.9675 11.8585 17.9676 11.8584 17.9675L12.689 18.4513C12.7487 18.4843 12.828 18.4644 12.8649 18.4024L12.8661 18.4003L12.9185 18.313C13.2117 17.809 13.6904 17.4043 14.3082 17.4043C14.9259 17.4043 15.4046 17.809 15.6978 18.313L15.7514 18.4024C15.7956 18.4767 15.8748 18.4824 15.9182 18.4566L15.9238 18.4533L16.7669 17.9623C16.8721 17.9031 16.9127 17.7607 16.8493 17.6521L16.848 17.6499C16.5546 17.1426 16.4418 16.5228 16.751 15.9855C17.0604 15.4476 17.6535 15.234 18.2407 15.234C18.3651 15.234 18.4698 15.1294 18.4698 15.0049V14.1524C18.4698 14.0279 18.3651 13.9232 18.2407 13.9232C17.6535 13.9232 17.0604 13.7097 16.751 13.1718C16.4418 12.6345 16.5546 12.0147 16.848 11.5074L16.8493 11.5051C16.9088 11.4031 16.8797 11.2609 16.7577 11.1896C16.7577 11.1896 16.7578 11.1897 16.7577 11.1896L15.9273 10.706C15.8676 10.6729 15.7883 10.6929 15.7514 10.7549L15.7502 10.7569L15.6978 10.8442C15.4046 11.3483 14.9259 11.753 14.3082 11.753C13.6904 11.753 13.2117 11.3483 12.9185 10.8442L12.8649 10.7549ZM14.0457 10.0504C13.6319 9.35662 12.7238 9.08763 11.9981 9.5172L11.1702 9.99939C10.3997 10.4365 10.1306 11.4271 10.5785 12.1966C10.6783 12.3694 10.6765 12.4578 10.6719 12.4851C10.6505 12.5028 10.5749 12.5482 10.3757 12.5482C9.49179 12.5482 8.77148 13.2685 8.77148 14.1524V15.0049C8.77148 15.8883 9.48352 16.6211 10.3804 16.6091C10.5761 16.6098 10.6506 16.6546 10.6719 16.6721C10.6765 16.6994 10.6783 16.7878 10.5785 16.9606C10.1258 17.7383 10.4084 18.7135 11.1659 19.1554L12.0005 19.6415L12.0054 19.6443C12.7152 20.0499 13.6243 19.8135 14.0457 19.1069C14.0459 19.1065 14.0462 19.1061 14.0464 19.1057L14.1002 19.0161L14.1058 19.0066C14.205 18.835 14.2817 18.7915 14.3082 18.7813C14.3346 18.7915 14.4113 18.835 14.5105 19.0066L14.5699 19.1057C14.5701 19.1061 14.5704 19.1065 14.5706 19.1069C14.9844 19.8006 15.8925 20.0696 16.6182 19.6401L17.4461 19.1579C18.2166 18.7208 18.4857 17.7302 18.0378 16.9607C17.938 16.7878 17.9398 16.6994 17.9444 16.6721C17.9658 16.6544 18.0414 16.609 18.2407 16.609C19.1245 16.609 19.8448 15.8887 19.8448 15.0049V14.1524C19.8448 13.2685 19.1245 12.5482 18.2407 12.5482C18.0414 12.5482 17.9658 12.5028 17.9444 12.4851C17.9398 12.4578 17.938 12.3694 18.0378 12.1965C18.4904 11.4188 18.2079 10.4437 17.4504 10.0019L16.6158 9.5158L16.6109 9.51296C15.9011 9.10737 14.992 9.34377 14.5706 10.0504C14.5703 10.0508 14.5701 10.0512 14.5699 10.0516L14.5161 10.1412L14.5105 10.1507C14.4113 10.3222 14.3346 10.3658 14.3082 10.376C14.2817 10.3658 14.205 10.3222 14.1058 10.1507L14.0464 10.0516C14.0462 10.0512 14.046 10.0508 14.0457 10.0504Z" fill="#F1F1F1"/>
</g>
</g>
</svg>
