<svg width="20" height="20" viewBox="0 0 20 20" fill="none" xmlns="http://www.w3.org/2000/svg">
<g id="vuesax/linear/category-2">
<g id="category-2">
<path id="Vector (Stroke)" fill-rule="evenodd" clip-rule="evenodd" d="M12.0344 1.03462C12.6671 0.401878 13.5604 0.145752 14.583 0.145752H16.4163C17.439 0.145752 18.3322 0.401878 18.965 1.03462C19.5977 1.66735 19.8538 2.56061 19.8538 3.58325V5.41658C19.8538 6.43923 19.5977 7.33248 18.965 7.96522C18.3322 8.59796 17.439 8.85408 16.4163 8.85408H14.583C13.5604 8.85408 12.6671 8.59796 12.0344 7.96522C11.4016 7.33248 11.1455 6.43923 11.1455 5.41658V3.58325C11.1455 2.56061 11.4016 1.66735 12.0344 1.03462ZM13.0066 2.00689C12.7227 2.29082 12.5205 2.77256 12.5205 3.58325V5.41658C12.5205 6.22728 12.7227 6.70902 13.0066 6.99295C13.2906 7.27688 13.7723 7.47908 14.583 7.47908H16.4163C17.227 7.47908 17.7088 7.27688 17.9927 6.99295C18.2766 6.70902 18.4788 6.22728 18.4788 5.41658V3.58325C18.4788 2.77256 18.2766 2.29082 17.9927 2.00689C17.7088 1.72296 17.227 1.52075 16.4163 1.52075H14.583C13.7723 1.52075 13.2906 1.72296 13.0066 2.00689Z" fill="white"/>
<path id="Vector (Stroke)_2" fill-rule="evenodd" clip-rule="evenodd" d="M1.03437 12.0346C1.66711 11.4019 2.56037 11.1458 3.58301 11.1458H5.41634C6.43898 11.1458 7.33224 11.4019 7.96498 12.0346C8.59772 12.6674 8.85384 13.5606 8.85384 14.5833V16.4166C8.85384 17.4392 8.59772 18.3325 7.96498 18.9652C7.33224 19.598 6.43898 19.8541 5.41634 19.8541H3.58301C2.56037 19.8541 1.66711 19.598 1.03437 18.9652C0.401634 18.3325 0.145508 17.4392 0.145508 16.4166V14.5833C0.145508 13.5606 0.401634 12.6674 1.03437 12.0346ZM2.00664 13.0069C1.72272 13.2908 1.52051 13.7726 1.52051 14.5833V16.4166C1.52051 17.2273 1.72272 17.709 2.00664 17.9929C2.29057 18.2769 2.77232 18.4791 3.58301 18.4791H5.41634C6.22703 18.4791 6.70878 18.2769 6.9927 17.9929C7.27663 17.709 7.47884 17.2273 7.47884 16.4166V14.5833C7.47884 13.7726 7.27663 13.2908 6.9927 13.0069C6.70878 12.723 6.22703 12.5208 5.41634 12.5208H3.58301C2.77232 12.5208 2.29057 12.723 2.00664 13.0069Z" fill="white"/>
<path id="Vector (Stroke)_3" fill-rule="evenodd" clip-rule="evenodd" d="M4.49967 1.52075C2.85433 1.52075 1.52051 2.85457 1.52051 4.49992C1.52051 6.14527 2.85433 7.47908 4.49967 7.47908C6.14502 7.47908 7.47884 6.14527 7.47884 4.49992C7.47884 2.85457 6.14502 1.52075 4.49967 1.52075ZM0.145508 4.49992C0.145508 2.09518 2.09493 0.145752 4.49967 0.145752C6.90441 0.145752 8.85384 2.09518 8.85384 4.49992C8.85384 6.90466 6.90441 8.85408 4.49967 8.85408C2.09493 8.85408 0.145508 6.90466 0.145508 4.49992Z" fill="white"/>
<path id="Vector (Stroke)_4" fill-rule="evenodd" clip-rule="evenodd" d="M15.4997 12.5208C13.8543 12.5208 12.5205 13.8546 12.5205 15.4999C12.5205 17.1453 13.8543 18.4791 15.4997 18.4791C17.145 18.4791 18.4788 17.1453 18.4788 15.4999C18.4788 13.8546 17.145 12.5208 15.4997 12.5208ZM11.1455 15.4999C11.1455 13.0952 13.0949 11.1458 15.4997 11.1458C17.9044 11.1458 19.8538 13.0952 19.8538 15.4999C19.8538 17.9047 17.9044 19.8541 15.4997 19.8541C13.0949 19.8541 11.1455 17.9047 11.1455 15.4999Z" fill="white"/>
</g>
</g> 
</svg>
