<svg width="18" height="20" viewBox="0 0 18 20" fill="none" xmlns="http://www.w3.org/2000/svg">
<g id="vuesax/linear/layer">
<g id="layer">
<path id="Vector (Stroke)" fill-rule="evenodd" clip-rule="evenodd" d="M8.80772 2.15796C8.46673 2.15796 8.16375 2.21758 7.97034 2.30418L7.96841 2.30505L2.55856 4.70738C1.84846 5.02066 1.7998 5.3041 1.7998 5.33421C1.7998 5.36432 1.84846 5.64776 2.55856 5.96104L2.56008 5.96171L7.97035 8.36423C8.16375 8.45084 8.46673 8.51046 8.80772 8.51046C9.14871 8.51046 9.45169 8.45084 9.6451 8.36424L9.64703 8.36338L15.0554 5.96171L15.0569 5.96104C15.767 5.64776 15.8156 5.36432 15.8156 5.33421C15.8156 5.3041 15.767 5.02066 15.0569 4.70738L9.64703 2.30504L9.6451 2.30418C9.45169 2.21758 9.14871 2.15796 8.80772 2.15796ZM10.206 1.04878C9.78543 0.860712 9.2776 0.782959 8.80772 0.782959C8.33784 0.782959 7.83002 0.860712 7.40946 1.04878C7.40911 1.04893 7.40877 1.04909 7.40843 1.04924L2.00355 3.44937C2.00331 3.44948 2.00379 3.44926 2.00355 3.44937C1.15563 3.82363 0.424805 4.45249 0.424805 5.33421C0.424805 6.2159 1.15485 6.84442 2.00273 7.21869C2.00246 7.21857 2.00301 7.21881 2.00273 7.21869L7.40843 9.61918C7.40882 9.61935 7.40921 9.61953 7.4096 9.6197C7.83013 9.80772 8.3379 9.88546 8.80772 9.88546C9.27757 9.88546 9.78536 9.80772 10.2059 9.61967C10.2063 9.61951 10.2066 9.61934 10.207 9.61918L15.6119 7.21905C15.6117 7.21915 15.6121 7.21894 15.6119 7.21905C16.4598 6.84479 17.1906 6.21593 17.1906 5.33421C17.1906 4.45246 16.4605 3.8239 15.6125 3.44965C15.6123 3.44956 15.6127 3.44974 15.6125 3.44965L10.207 1.04924C10.2067 1.04909 10.2063 1.04893 10.206 1.04878Z" fill="#F1F1F1"/>
<path id="Vector (Stroke)_2" fill-rule="evenodd" clip-rule="evenodd" d="M0.75 8.396C1.1297 8.396 1.4375 8.7038 1.4375 9.0835C1.4375 9.30661 1.52576 9.59307 1.70324 9.86585C1.88071 10.1386 2.10673 10.3352 2.31104 10.4254L2.31273 10.4262L8.5356 13.1939C8.53537 13.1938 8.53582 13.194 8.5356 13.1939C8.83672 13.3269 9.174 13.3249 9.45986 13.1959L9.46311 13.1945L15.6873 10.4262L15.689 10.4254C15.8933 10.3352 16.1193 10.1386 16.2968 9.86585C16.4742 9.59307 16.5625 9.30661 16.5625 9.0835C16.5625 8.7038 16.8703 8.396 17.25 8.396C17.6297 8.396 17.9375 8.7038 17.9375 9.0835C17.9375 9.63039 17.737 10.1735 17.4493 10.6157C17.1617 11.0577 16.7463 11.4614 16.2451 11.6829C16.2449 11.683 16.2454 11.6828 16.2451 11.6829L10.0251 14.4494C10.0245 14.4497 10.0239 14.4499 10.0233 14.4502C9.37481 14.742 8.63083 14.7395 7.9794 14.4514L1.75563 11.6832C1.75532 11.6831 1.755 11.683 1.75469 11.6828C1.25359 11.4613 0.838273 11.0577 0.550718 10.6157C0.26299 10.1735 0.0625 9.63039 0.0625 9.0835C0.0625 8.7038 0.370304 8.396 0.75 8.396Z" fill="#F1F1F1"/>
<path id="Vector (Stroke)_3" fill-rule="evenodd" clip-rule="evenodd" d="M0.75 12.9792C1.1297 12.9792 1.4375 13.2871 1.4375 13.6667C1.4375 14.245 1.77937 14.7707 2.31341 15.0097C2.31324 15.0096 2.31358 15.0098 2.31341 15.0097L8.5356 17.7772C8.53537 17.7771 8.53582 17.7773 8.5356 17.7772C8.83672 17.9101 9.174 17.9081 9.45986 17.7792L9.46311 17.7777L15.6861 15.0099C15.6859 15.01 15.6863 15.0099 15.6861 15.0099C16.2201 14.7709 16.5625 14.2449 16.5625 13.6667C16.5625 13.2871 16.8703 12.9792 17.25 12.9792C17.6297 12.9792 17.9375 13.2871 17.9375 13.6667C17.9375 14.7933 17.2713 15.8074 16.2473 16.2652L16.2461 16.2657L10.0251 19.0326C10.0245 19.0329 10.0239 19.0332 10.0233 19.0335C9.37481 19.3253 8.63083 19.3228 7.9794 19.0347L1.75274 16.2652C0.728744 15.8074 0.0625 14.7933 0.0625 13.6667C0.0625 13.2871 0.370304 12.9792 0.75 12.9792Z" fill="#F1F1F1"/>
</g>
</g>
</svg>
