<svg width="20" height="20" viewBox="0 0 20 20" fill="none" xmlns="http://www.w3.org/2000/svg">
<g id="vuesax/linear/data">
<g id="data">
<path id="Vector (Stroke)" fill-rule="evenodd" clip-rule="evenodd" d="M11.1445 17.3341C11.1445 16.7012 10.6315 16.1882 9.9987 16.1882C9.36587 16.1882 8.85286 16.7012 8.85286 17.3341C8.85286 17.9669 9.36587 18.4799 9.9987 18.4799C10.6315 18.4799 11.1445 17.9669 11.1445 17.3341ZM9.9987 14.8132C11.3909 14.8132 12.5195 15.9418 12.5195 17.3341C12.5195 18.7263 11.3909 19.8549 9.9987 19.8549C8.60648 19.8549 7.47786 18.7263 7.47786 17.3341C7.47786 15.9418 8.60648 14.8132 9.9987 14.8132Z" fill="#F1F1F1"/>
<path id="Vector (Stroke)_2" fill-rule="evenodd" clip-rule="evenodd" d="M18.4775 17.3341C18.4775 16.7012 17.9645 16.1882 17.3317 16.1882C16.6989 16.1882 16.1859 16.7012 16.1859 17.3341C16.1859 17.9669 16.6989 18.4799 17.3317 18.4799C17.9645 18.4799 18.4775 17.9669 18.4775 17.3341ZM17.3317 14.8132C18.7239 14.8132 19.8525 15.9418 19.8525 17.3341C19.8525 18.7263 18.7239 19.8549 17.3317 19.8549C15.9395 19.8549 14.8109 18.7263 14.8109 17.3341C14.8109 15.9418 15.9395 14.8132 17.3317 14.8132Z" fill="#F1F1F1"/>
<path id="Vector (Stroke)_3" fill-rule="evenodd" clip-rule="evenodd" d="M3.81055 17.3341C3.81055 16.7012 3.29754 16.1882 2.66471 16.1882C2.03189 16.1882 1.51888 16.7012 1.51888 17.3341C1.51888 17.9669 2.03189 18.4799 2.66471 18.4799C3.29754 18.4799 3.81055 17.9669 3.81055 17.3341ZM2.66471 14.8132C4.05693 14.8132 5.18555 15.9418 5.18555 17.3341C5.18555 18.7263 4.05693 19.8549 2.66471 19.8549C1.2725 19.8549 0.14388 18.7263 0.14388 17.3341C0.14388 15.9418 1.2725 14.8132 2.66471 14.8132Z" fill="#F1F1F1"/>
<path id="Vector (Stroke)_4" fill-rule="evenodd" clip-rule="evenodd" d="M11.1445 2.66732C11.1445 2.03449 10.6315 1.52148 9.9987 1.52148C9.36587 1.52148 8.85286 2.03449 8.85286 2.66732C8.85286 3.30014 9.36587 3.81315 9.9987 3.81315C10.6315 3.81315 11.1445 3.30014 11.1445 2.66732ZM9.9987 0.146484C11.3909 0.146484 12.5195 1.2751 12.5195 2.66732C12.5195 4.05954 11.3909 5.18815 9.9987 5.18815C8.60648 5.18815 7.47786 4.05954 7.47786 2.66732C7.47786 1.2751 8.60648 0.146484 9.9987 0.146484Z" fill="#F1F1F1"/>
<path id="Vector (Stroke)_5" fill-rule="evenodd" clip-rule="evenodd" d="M9.99805 3.81323C10.3777 3.81323 10.6855 4.12104 10.6855 4.50073L10.6855 15.5007C10.6855 15.8804 10.3777 16.1882 9.99805 16.1882C9.61835 16.1882 9.31055 15.8804 9.31055 15.5007L9.31055 4.50073C9.31055 4.12104 9.61835 3.81323 9.99805 3.81323Z" fill="#F1F1F1"/>
<path id="Vector (Stroke)_6" fill-rule="evenodd" clip-rule="evenodd" d="M17.1307 9.28535C17.7634 9.91809 18.0195 10.8113 18.0195 11.834L18.0195 15.5007C18.0195 15.8803 17.7117 16.1882 17.332 16.1882C16.9523 16.1882 16.6445 15.8803 16.6445 15.5007L16.6445 11.834C16.6445 11.0233 16.4423 10.5415 16.1584 10.2576C15.8745 9.97369 15.3927 9.77148 14.582 9.77148L5.41537 9.77148C4.60467 9.77148 4.12293 9.97369 3.839 10.2576C3.55507 10.5415 3.35287 11.0233 3.35287 11.834L3.35286 15.5007C3.35286 15.8803 3.04506 16.1882 2.66536 16.1882C2.28567 16.1882 1.97786 15.8803 1.97786 15.5007L1.97787 11.834C1.97787 10.8113 2.23399 9.91809 2.86673 9.28535C3.49947 8.65261 4.39272 8.39648 5.41537 8.39648L14.582 8.39648C15.6047 8.39648 16.4979 8.65261 17.1307 9.28535Z" fill="#F1F1F1"/>
</g>
</g>
</svg>
