<svg width="20" height="20" viewBox="0 0 20 20" fill="none" xmlns="http://www.w3.org/2000/svg">
<g id="vuesax/linear/setting-2">
<g id="setting-2">
<path id="Vector (Stroke)" fill-rule="evenodd" clip-rule="evenodd" d="M10 7.9375C8.86091 7.9375 7.9375 8.86091 7.9375 10C7.9375 11.1391 8.86091 12.0625 10 12.0625C11.1391 12.0625 12.0625 11.1391 12.0625 10C12.0625 8.86091 11.1391 7.9375 10 7.9375ZM6.5625 10C6.5625 8.10152 8.10152 6.5625 10 6.5625C11.8985 6.5625 13.4375 8.10152 13.4375 10C13.4375 11.8985 11.8985 13.4375 10 13.4375C8.10152 13.4375 6.5625 11.8985 6.5625 10Z" fill="#F1F1F1"/>
<path id="Vector (Stroke)_2" fill-rule="evenodd" clip-rule="evenodd" d="M7.80286 2.45611C7.55749 2.04733 7.04076 1.92016 6.65702 2.14846L6.64702 2.15441L5.06114 3.06183C4.55938 3.34855 4.38628 3.9986 4.67329 4.49535L4.07801 4.83929L4.67282 4.49453C5.16329 5.34073 5.29515 6.2682 4.85701 7.02849C4.41894 7.78868 3.55073 8.13929 2.57467 8.13929C1.99422 8.13929 1.52051 8.61746 1.52051 9.19345V10.8068C1.52051 11.3828 1.99422 11.861 2.57467 11.861C3.55073 11.861 4.41894 12.2116 4.85701 12.9717C5.29509 13.7319 5.16333 14.6593 4.67301 15.5054C4.38639 16.0021 4.55918 16.6516 5.06077 16.9382L6.65707 17.8517C7.0408 18.08 7.55747 17.9529 7.80284 17.5442L7.90136 17.374C8.39166 16.5281 9.13071 15.9516 10.0077 15.9516C10.8854 15.9516 11.6221 16.5285 12.108 17.3754C12.1082 17.3758 12.1084 17.3762 12.1086 17.3765L12.2057 17.5441C12.451 17.9529 12.9678 18.0801 13.3515 17.8518L13.3615 17.8458L14.9474 16.9384C15.4478 16.6525 15.6236 16.0114 15.3345 15.5036C14.845 14.658 14.7137 13.7314 15.1515 12.9717C15.5896 12.2116 16.4578 11.861 17.4338 11.861C18.0143 11.861 18.488 11.3828 18.488 10.8068V9.19345C18.488 8.613 18.0098 8.13929 17.4338 8.13929C16.4578 8.13929 15.5896 7.78868 15.1515 7.02849C14.7135 6.26835 14.8452 5.34109 15.3354 4.49502C15.6222 3.99831 15.4494 3.3487 14.9477 3.06204L13.3514 2.14855C12.9677 1.92025 12.451 2.04733 12.2057 2.45612L12.1072 2.62625C11.6169 3.47216 10.8778 4.04866 10.0008 4.04866C9.12325 4.04866 8.38654 3.47184 7.9007 2.62511C7.90043 2.62464 7.90016 2.62417 7.89989 2.6237L7.80286 2.45611ZM5.95945 0.963543C7.02226 0.335293 8.37037 0.72073 8.98635 1.75611L8.99053 1.76314L9.09132 1.93733L9.09279 1.93988C9.43196 2.53154 9.78575 2.67366 10.0008 2.67366C10.2169 2.67366 10.5734 2.53034 10.9172 1.93732C10.9171 1.93742 10.9173 1.93723 10.9172 1.93732L11.0221 1.75608C11.6381 0.7207 12.9863 0.33529 14.0491 0.963552L15.6299 1.8682C16.7965 2.53482 17.1921 4.02998 16.5258 5.18323L16.5253 5.18405C16.1816 5.77701 16.2356 6.15579 16.3428 6.34196C16.4502 6.52823 16.7507 6.76429 17.4338 6.76429C18.7645 6.76429 19.863 7.84891 19.863 9.19345V10.8068C19.863 12.1375 18.7784 13.236 17.4338 13.236C16.7507 13.236 16.4502 13.472 16.3428 13.6583C16.2356 13.8444 16.1816 14.2232 16.5253 14.8162L16.5274 14.8199C17.1904 15.98 16.7974 17.4646 15.6303 18.1318C15.6302 18.1319 15.6304 18.1318 15.6303 18.1318L14.049 19.0367C12.9862 19.6649 11.6381 19.2795 11.0222 18.2441L11.018 18.2371L10.9172 18.0629L10.9157 18.0604C10.5766 17.4687 10.2228 17.3266 10.0077 17.3266C9.79159 17.3266 9.43513 17.4699 9.09132 18.0629C9.09126 18.063 9.09138 18.0628 9.09132 18.0629L8.98639 18.2442C8.37042 19.2795 7.02233 19.6649 5.95953 19.0367L4.37858 18.132C4.37846 18.132 4.3787 18.1321 4.37858 18.132C3.21229 17.4653 2.81647 15.9701 3.48273 14.817L3.4832 14.8162C3.82689 14.2232 3.77295 13.8444 3.66567 13.6583C3.55833 13.472 3.25778 13.236 2.57467 13.236C1.23013 13.236 0.145508 12.1375 0.145508 10.8068V9.19345C0.145508 7.86278 1.23013 6.76429 2.57467 6.76429C3.25778 6.76429 3.55833 6.52823 3.66567 6.34196C3.77295 6.15579 3.82689 5.77701 3.4832 5.18405L3.48273 5.18323C2.81647 4.0301 3.21192 2.53514 4.37821 1.86842L5.95945 0.963543Z" fill="#F1F1F1"/>
</g>
</g>
</svg>
