<svg width="18" height="18" viewBox="0 0 18 18" fill="none" xmlns="http://www.w3.org/2000/svg">
<g id="vuesax/linear/task">
<g id="task">
<path id="Vector (Stroke)" fill-rule="evenodd" clip-rule="evenodd" d="M7.39551 15.875C7.39551 15.4953 7.70331 15.1875 8.08301 15.1875H17.2497C17.6294 15.1875 17.9372 15.4953 17.9372 15.875C17.9372 16.2547 17.6294 16.5625 17.2497 16.5625H8.08301C7.70331 16.5625 7.39551 16.2547 7.39551 15.875Z" fill="#F1F1F1"/>
<path id="Vector (Stroke)_2" fill-rule="evenodd" clip-rule="evenodd" d="M7.39551 9.45825C7.39551 9.07856 7.70331 8.77075 8.08301 8.77075H17.2497C17.6294 8.77075 17.9372 9.07856 17.9372 9.45825C17.9372 9.83795 17.6294 10.1458 17.2497 10.1458H8.08301C7.70331 10.1458 7.39551 9.83795 7.39551 9.45825Z" fill="#F1F1F1"/>
<path id="Vector (Stroke)_3" fill-rule="evenodd" clip-rule="evenodd" d="M7.39551 3.0415C7.39551 2.66181 7.70331 2.354 8.08301 2.354H17.2497C17.6294 2.354 17.9372 2.66181 17.9372 3.0415C17.9372 3.4212 17.6294 3.729 17.2497 3.729H8.08301C7.70331 3.729 7.39551 3.4212 7.39551 3.0415Z" fill="#F1F1F1"/>
<path id="Vector (Stroke)_4" fill-rule="evenodd" clip-rule="evenodd" d="M4.9028 0.722116C5.17129 0.990601 5.17129 1.4259 4.9028 1.69439L2.1528 4.44439C1.88432 4.71287 1.44902 4.71287 1.18053 4.44439L0.263864 3.52772C-0.00462136 3.25924 -0.00462136 2.82393 0.263864 2.55545C0.532349 2.28696 0.96765 2.28696 1.23614 2.55545L1.66667 2.98598L3.93053 0.722116C4.19902 0.453631 4.63432 0.453631 4.9028 0.722116Z" fill="#F1F1F1"/>
<path id="Vector (Stroke)_5" fill-rule="evenodd" clip-rule="evenodd" d="M4.9028 7.13886C5.17129 7.40735 5.17129 7.84265 4.9028 8.11114L2.1528 10.8611C1.88432 11.1296 1.44902 11.1296 1.18053 10.8611L0.263864 9.94447C-0.00462136 9.67598 -0.00462136 9.24068 0.263864 8.9722C0.532349 8.70371 0.96765 8.70371 1.23614 8.9722L1.66667 9.40273L3.93053 7.13886C4.19902 6.87038 4.63432 6.87038 4.9028 7.13886Z" fill="#F1F1F1"/>
<path id="Vector (Stroke)_6" fill-rule="evenodd" clip-rule="evenodd" d="M4.9028 13.5554C5.17129 13.8239 5.17129 14.2592 4.9028 14.5276L2.1528 17.2776C1.88432 17.5461 1.44902 17.5461 1.18053 17.2776L0.263864 16.361C-0.00462136 16.0925 -0.00462136 15.6572 0.263864 15.3887C0.532349 15.1202 0.96765 15.1202 1.23614 15.3887L1.66667 15.8192L3.93053 13.5554C4.19902 13.2869 4.63432 13.2869 4.9028 13.5554Z" fill="#F1F1F1"/>
</g>
</g>
</svg>
